<mxfile host="app.diagrams.net" agent="Mozilla/5.0 (Macintosh; Intel Mac OS X 10_15_7) AppleWebKit/537.36 (KHTML, like Gecko) Chrome/140.0.0.0 Safari/537.36" scale="1" border="0" version="28.2.7">
  <diagram name="Airplane UML Diagram" id="AkZRyPAdpT2aLgV5QMoy">
    <mxGraphModel dx="1306" dy="870" grid="1" gridSize="10" guides="1" tooltips="1" connect="1" arrows="1" fold="1" page="1" pageScale="1" pageWidth="827" pageHeight="1169" math="0" shadow="0">
      <root>
        <mxCell id="0" />
        <mxCell id="1" parent="0" />
        <mxCell id="tr-UQ3Ny3N0iNai335fQ-42" style="edgeStyle=orthogonalEdgeStyle;rounded=0;orthogonalLoop=1;jettySize=auto;html=1;exitX=0.5;exitY=1;exitDx=0;exitDy=0;endArrow=none;endFill=0;entryX=0.381;entryY=-0.014;entryDx=0;entryDy=0;entryPerimeter=0;" parent="1" edge="1">
          <mxGeometry relative="1" as="geometry">
            <mxPoint x="127" y="220" as="sourcePoint" />
            <mxPoint x="127.00999999999999" y="497.97" as="targetPoint" />
          </mxGeometry>
        </mxCell>
        <mxCell id="tr-UQ3Ny3N0iNai335fQ-1" value="&lt;div&gt;Airplane&lt;/div&gt;&lt;div&gt;&lt;br&gt;&lt;/div&gt;&lt;div style=&quot;text-align: left;&quot;&gt;- id: String&lt;/div&gt;&lt;div style=&quot;text-align: left;&quot;&gt;- model: String&lt;/div&gt;&lt;div style=&quot;text-align: left;&quot;&gt;- capacity: int&lt;/div&gt;&lt;div style=&quot;text-align: left;&quot;&gt;- status: String&lt;/div&gt;&lt;div style=&quot;text-align: left;&quot;&gt;&lt;br&gt;&lt;/div&gt;&lt;div style=&quot;text-align: left;&quot;&gt;+ assignFlight(f: Flight): void&lt;/div&gt;&lt;div style=&quot;text-align: left;&quot;&gt;+ updateStatus(s: String): void&lt;/div&gt;&lt;div style=&quot;text-align: left;&quot;&gt;+ getInfo(): String&lt;/div&gt;&lt;div&gt;&lt;br&gt;&lt;/div&gt;" style="rounded=0;whiteSpace=wrap;html=1;fillColor=#dae8fc;strokeColor=#6c8ebf;fontSize=12;" parent="1" vertex="1">
          <mxGeometry x="40" y="30" width="210" height="170" as="geometry" />
        </mxCell>
        <mxCell id="tr-UQ3Ny3N0iNai335fQ-2" value="&lt;div&gt;Flight&lt;/div&gt;&lt;div&gt;&lt;br&gt;&lt;/div&gt;&lt;div style=&quot;text-align: left;&quot;&gt;- flightNo: String&lt;/div&gt;&lt;div style=&quot;text-align: left;&quot;&gt;- origin: String&lt;/div&gt;&lt;div style=&quot;text-align: left;&quot;&gt;- destination: String&lt;/div&gt;&lt;div style=&quot;text-align: left;&quot;&gt;- departureTime: Date&lt;/div&gt;&lt;div style=&quot;text-align: left;&quot;&gt;- arrivalTime: Date&lt;/div&gt;&lt;div style=&quot;text-align: left;&quot;&gt;&lt;br&gt;&lt;/div&gt;&lt;div style=&quot;text-align: left;&quot;&gt;+ schedule(): void&lt;/div&gt;&lt;div style=&quot;text-align: left;&quot;&gt;+ cancel(): void&lt;/div&gt;&lt;div style=&quot;text-align: left;&quot;&gt;+ getDuration(): int&lt;/div&gt;" style="rounded=0;whiteSpace=wrap;html=1;fillColor=#dae8fc;strokeColor=#6c8ebf;fontSize=12;" parent="1" vertex="1">
          <mxGeometry x="414" y="20" width="220" height="170" as="geometry" />
        </mxCell>
        <mxCell id="tr-UQ3Ny3N0iNai335fQ-7" value="&lt;blockquote style=&quot;margin: 0 0 0 40px; border: none; padding: 0px;&quot;&gt;&lt;div style=&quot;text-align: center;&quot;&gt;Airport&lt;/div&gt;&lt;div&gt;&lt;br&gt;&lt;/div&gt;&lt;div&gt;- code: String&lt;/div&gt;&lt;div&gt;- name: String&lt;/div&gt;&lt;div&gt;- location: String&lt;/div&gt;&lt;div&gt;&lt;br&gt;&lt;/div&gt;&lt;div&gt;+ registerFlight(f: Flight): void&lt;/div&gt;&lt;div&gt;+ getRunwayStatus(): String&lt;/div&gt;&lt;/blockquote&gt;&lt;div&gt;&lt;br&gt;&lt;/div&gt;" style="rounded=0;whiteSpace=wrap;html=1;fillColor=#dae8fc;strokeColor=#6c8ebf;fontSize=12;align=left;" parent="1" vertex="1">
          <mxGeometry x="370" y="510" width="240" height="150" as="geometry" />
        </mxCell>
        <mxCell id="tr-UQ3Ny3N0iNai335fQ-9" value="&lt;div&gt;MaintenanceRecord&lt;/div&gt;&lt;div&gt;&lt;span style=&quot;color: rgba(0, 0, 0, 0); font-family: monospace; font-size: 0px; text-align: start; text-wrap-mode: nowrap;&quot;&gt;%3CmxGraphModel%3E%3Croot%3E%3CmxCell%20id%3D%220%22%2F%3E%3CmxCell%20id%3D%221%22%20parent%3D%220%22%2F%3E%3CmxCell%20id%3D%222%22%20value%3D%22%22%20style%3D%22endArrow%3Dnone%3Bhtml%3D1%3Brounded%3D0%3BexitX%3D-0.005%3BexitY%3D0.571%3BexitDx%3D0%3BexitDy%3D0%3BexitPerimeter%3D0%3BentryX%3D0.998%3BentryY%3D0.649%3BentryDx%3D0%3BentryDy%3D0%3BentryPerimeter%3D0%3B%22%20edge%3D%221%22%20parent%3D%221%22%3E%3CmxGeometry%20width%3D%2250%22%20height%3D%2250%22%20relative%3D%221%22%20as%3D%22geometry%22%3E%3CmxPoint%20x%3D%22760%22%20y%3D%22140%22%20as%3D%22sourcePoint%22%2F%3E%3CmxPoint%20x%3D%22960%22%20y%3D%22140%22%20as%3D%22targetPoint%22%2F%3E%3C%2FmxGeometry%3E%3C%2FmxCell%3E%3C%2Froot%3E%3C%2FmxGraphModel%3E&lt;/span&gt;&lt;/div&gt;&lt;div style=&quot;text-align: left;&quot;&gt;- recordId: String&lt;/div&gt;&lt;div style=&quot;text-align: left;&quot;&gt;- date: Date&lt;/div&gt;&lt;div style=&quot;text-align: left;&quot;&gt;- details: String&lt;/div&gt;&lt;div style=&quot;text-align: left;&quot;&gt;- engineerName: String&lt;/div&gt;&lt;div style=&quot;text-align: left;&quot;&gt;&lt;br&gt;&lt;/div&gt;&lt;div style=&quot;text-align: left;&quot;&gt;+ addRecord(): void&lt;/div&gt;&lt;div style=&quot;text-align: left;&quot;&gt;+ viewHistory(): void&lt;/div&gt;&lt;div style=&quot;text-align: left;&quot;&gt;&lt;br&gt;&lt;/div&gt;" style="rounded=0;whiteSpace=wrap;html=1;fillColor=#dae8fc;strokeColor=#6c8ebf;fontSize=12;" parent="1" vertex="1">
          <mxGeometry x="50" y="500" width="210" height="145" as="geometry" />
        </mxCell>
        <mxCell id="tr-UQ3Ny3N0iNai335fQ-10" value="" style="endArrow=none;html=1;rounded=0;exitX=-0.005;exitY=0.571;exitDx=0;exitDy=0;exitPerimeter=0;entryX=0.999;entryY=0.571;entryDx=0;entryDy=0;entryPerimeter=0;" parent="1" source="tr-UQ3Ny3N0iNai335fQ-1" target="tr-UQ3Ny3N0iNai335fQ-1" edge="1">
          <mxGeometry width="50" height="50" relative="1" as="geometry">
            <mxPoint x="390" y="440" as="sourcePoint" />
            <mxPoint x="440" y="390" as="targetPoint" />
          </mxGeometry>
        </mxCell>
        <mxCell id="tr-UQ3Ny3N0iNai335fQ-12" value="" style="endArrow=none;html=1;rounded=0;exitX=-0.005;exitY=0.571;exitDx=0;exitDy=0;exitPerimeter=0;entryX=1.001;entryY=0.653;entryDx=0;entryDy=0;entryPerimeter=0;" parent="1" target="tr-UQ3Ny3N0iNai335fQ-2" edge="1">
          <mxGeometry width="50" height="50" relative="1" as="geometry">
            <mxPoint x="414" y="130" as="sourcePoint" />
            <mxPoint x="625" y="130" as="targetPoint" />
          </mxGeometry>
        </mxCell>
        <mxCell id="tr-UQ3Ny3N0iNai335fQ-14" value="" style="endArrow=none;html=1;rounded=0;exitX=-0.005;exitY=0.571;exitDx=0;exitDy=0;exitPerimeter=0;" parent="1" edge="1">
          <mxGeometry width="50" height="50" relative="1" as="geometry">
            <mxPoint x="40" y="60" as="sourcePoint" />
            <mxPoint x="250" y="60" as="targetPoint" />
          </mxGeometry>
        </mxCell>
        <mxCell id="tr-UQ3Ny3N0iNai335fQ-15" value="" style="endArrow=none;html=1;rounded=0;exitX=-0.005;exitY=0.571;exitDx=0;exitDy=0;exitPerimeter=0;" parent="1" edge="1">
          <mxGeometry width="50" height="50" relative="1" as="geometry">
            <mxPoint x="414" y="50" as="sourcePoint" />
            <mxPoint x="634" y="50" as="targetPoint" />
          </mxGeometry>
        </mxCell>
        <mxCell id="tr-UQ3Ny3N0iNai335fQ-23" value="" style="endArrow=none;html=1;rounded=0;exitX=0;exitY=0.6;exitDx=0;exitDy=0;exitPerimeter=0;entryX=1;entryY=0.6;entryDx=0;entryDy=0;entryPerimeter=0;" parent="1" target="tr-UQ3Ny3N0iNai335fQ-7" edge="1" source="tr-UQ3Ny3N0iNai335fQ-7">
          <mxGeometry width="50" height="50" relative="1" as="geometry">
            <mxPoint x="280" y="359.5" as="sourcePoint" />
            <mxPoint x="479" y="360.5" as="targetPoint" />
          </mxGeometry>
        </mxCell>
        <mxCell id="tr-UQ3Ny3N0iNai335fQ-28" value="" style="endArrow=none;html=1;rounded=0;exitX=0.99;exitY=0.138;exitDx=0;exitDy=0;exitPerimeter=0;entryX=-0.01;entryY=0.145;entryDx=0;entryDy=0;entryPerimeter=0;" parent="1" target="tr-UQ3Ny3N0iNai335fQ-9" edge="1" source="tr-UQ3Ny3N0iNai335fQ-9">
          <mxGeometry width="50" height="50" relative="1" as="geometry">
            <mxPoint x="280" y="520" as="sourcePoint" />
            <mxPoint x="460" y="520.59" as="targetPoint" />
          </mxGeometry>
        </mxCell>
        <mxCell id="tr-UQ3Ny3N0iNai335fQ-29" value="" style="endArrow=none;html=1;rounded=0;exitX=-0.005;exitY=0.571;exitDx=0;exitDy=0;exitPerimeter=0;entryX=1.002;entryY=0.145;entryDx=0;entryDy=0;entryPerimeter=0;" parent="1" edge="1">
          <mxGeometry width="50" height="50" relative="1" as="geometry">
            <mxPoint x="50" y="590" as="sourcePoint" />
            <mxPoint x="260" y="591" as="targetPoint" />
          </mxGeometry>
        </mxCell>
        <mxCell id="tr-UQ3Ny3N0iNai335fQ-31" value="" style="endArrow=none;html=1;rounded=0;exitX=1.01;exitY=0.455;exitDx=0;exitDy=0;exitPerimeter=0;entryX=0;entryY=0.5;entryDx=0;entryDy=0;" parent="1" source="tr-UQ3Ny3N0iNai335fQ-32" target="tr-UQ3Ny3N0iNai335fQ-7" edge="1">
          <mxGeometry width="50" height="50" relative="1" as="geometry">
            <mxPoint x="440" y="340" as="sourcePoint" />
            <mxPoint x="380" y="440" as="targetPoint" />
            <Array as="points" />
          </mxGeometry>
        </mxCell>
        <mxCell id="tr-UQ3Ny3N0iNai335fQ-46" style="edgeStyle=orthogonalEdgeStyle;rounded=0;orthogonalLoop=1;jettySize=auto;html=1;endArrow=none;endFill=0;" parent="1" source="tr-UQ3Ny3N0iNai335fQ-2" target="tr-UQ3Ny3N0iNai335fQ-7" edge="1">
          <mxGeometry relative="1" as="geometry">
            <Array as="points" />
          </mxGeometry>
        </mxCell>
        <mxCell id="tr-UQ3Ny3N0iNai335fQ-48" style="edgeStyle=orthogonalEdgeStyle;rounded=0;orthogonalLoop=1;jettySize=auto;html=1;exitX=0;exitY=0.5;exitDx=0;exitDy=0;entryX=1;entryY=0.443;entryDx=0;entryDy=0;entryPerimeter=0;" parent="1" source="tr-UQ3Ny3N0iNai335fQ-2" target="tr-UQ3Ny3N0iNai335fQ-1" edge="1">
          <mxGeometry relative="1" as="geometry" />
        </mxCell>
        <mxCell id="mU-rGUMBnhlQS2hINuwA-1" value="" style="endArrow=none;html=1;rounded=0;exitX=0;exitY=0.6;exitDx=0;exitDy=0;exitPerimeter=0;entryX=1;entryY=0.2;entryDx=0;entryDy=0;entryPerimeter=0;" edge="1" parent="1" target="tr-UQ3Ny3N0iNai335fQ-7">
          <mxGeometry width="50" height="50" relative="1" as="geometry">
            <mxPoint x="370" y="540" as="sourcePoint" />
            <mxPoint x="570" y="540" as="targetPoint" />
          </mxGeometry>
        </mxCell>
        <mxCell id="mU-rGUMBnhlQS2hINuwA-2" value="" style="endArrow=none;html=1;rounded=0;exitX=1.01;exitY=0.455;exitDx=0;exitDy=0;exitPerimeter=0;entryX=0;entryY=0.5;entryDx=0;entryDy=0;" edge="1" parent="1" source="tr-UQ3Ny3N0iNai335fQ-9" target="tr-UQ3Ny3N0iNai335fQ-32">
          <mxGeometry width="50" height="50" relative="1" as="geometry">
            <mxPoint x="262" y="566" as="sourcePoint" />
            <mxPoint x="370" y="585" as="targetPoint" />
            <Array as="points" />
          </mxGeometry>
        </mxCell>
        <mxCell id="tr-UQ3Ny3N0iNai335fQ-32" value="" style="rhombus;whiteSpace=wrap;html=1;" parent="1" vertex="1">
          <mxGeometry x="355" y="575" width="15" height="20" as="geometry" />
        </mxCell>
        <mxCell id="mU-rGUMBnhlQS2hINuwA-5" value="" style="rhombus;whiteSpace=wrap;html=1;" vertex="1" parent="1">
          <mxGeometry x="120" y="200" width="15" height="20" as="geometry" />
        </mxCell>
      </root>
    </mxGraphModel>
  </diagram>
</mxfile>
